# xmcd CD database file
#
# Track frame offsets:
#	150
#	35695
#	59560
#	86215
#	103630
#	128622
#	161980
#	194912
#	218930
#	251897
#	271692
#
# Disc length: 4028 seconds
#
# Revision: 0
# Processed by: cddbd v1.5.1PL0 Copyright (c) Steve Scherf et al.
# Submitted via: CDex 1.51
#
DISCID=ad0fba0b
DTITLE=Gislaved Big Band Sweden - ALL OF US
DYEAR=1994
DGENRE=Jazz
TTITLE0=Au Privave
TTITLE1=Satin Doll
TTITLE2=Jang
TTITLE3=Route 66
TTITLE4=Mercy, Mercy, Mercy
TTITLE5=All Of Me
TTITLE6=Hot North Wind
TTITLE7=Can't Help Lovin' That Man Of Mine
TTITLE8=Sister Sadie
TTITLE9=Five Minute Blues
TTITLE10=Revelation
EXTD=YEAR: 1994
EXTT0=
EXTT1=
EXTT2=
EXTT3=
EXTT4=
EXTT5=
EXTT6=
EXTT7=
EXTT8=
EXTT9=
EXTT10=
PLAYORDER=
